<svg width="100" height="139" viewBox="0 0 100 139" fill="none" xmlns="http://www.w3.org/2000/svg">
<path d="M85 61.3442H75.522V49.6651H61.4945V105.8C69.0769 99.4707 74.0055 81.814 75.522 73.7767L85 80.5581C77.7209 109.492 59.978 120.242 52.0165 122V41H85V61.3442Z" fill="#C61618"/>
<path d="M16 41H47.8462V49.6651H25.0989V66.0535H40.6429V73.7767H25.0989V78.1093V82.4419C25.0989 82.4419 24.3407 96.7581 47.8462 108.814V122C22.9758 111.15 16.2527 91.107 16 82.4419V41Z" fill="#C61618"/>
<path d="M72.8372 36.4915L75.0698 27H93.6744L100 33.8339V79.7729C97.6186 116.524 67.0078 134.571 52 139V128.749C81.4698 116.904 89.5814 91.1627 89.9535 79.7729V36.4915H72.8372Z" fill="#C61618"/>
<path d="M27.7287 36.4915L25.4496 27H6.45736L0 33.8339V79.7729C2.43101 116.524 33.6796 134.571 49 139V128.749C18.9163 116.904 10.6357 91.1627 10.2558 79.7729V36.4915H27.7287Z" fill="#C61618"/>
<path d="M67.6087 37L77 6.9375L66.8261 19.2708L64.4783 14.6458L56.6522 23.8958L48.8261 0L42.5652 23.8958L33.9565 14.6458L32.3913 20.0417L23 9.25L33.9565 37V29.2917L41 37L42.5652 29.2917H44.913L50.3913 37L54.3043 29.2917H56.6522L59.7826 37L64.4783 29.2917L67.6087 37Z" fill="#C61618"/>
</svg>
